<?xml version="1.0" encoding="UTF-8" standalone="no"?>
<svg
   width="24"
   height="24"
   fill="white"
   viewBox="0 0 24 24"
   version="1.1"
   id="svg1"
   sodipodi:docname="github.svg"
   inkscape:version="1.4 (86a8ad7, 2024-10-11)"
   xmlns:inkscape="http://www.inkscape.org/namespaces/inkscape"
   xmlns:sodipodi="http://sodipodi.sourceforge.net/DTD/sodipodi-0.dtd"
   xmlns="http://www.w3.org/2000/svg"
   xmlns:svg="http://www.w3.org/2000/svg">
  <defs
     id="defs1" />
  <sodipodi:namedview
     id="namedview1"
     pagecolor="#ffffff"
     bordercolor="#000000"
     borderopacity="0.25"
     inkscape:showpageshadow="2"
     inkscape:pageopacity="0.0"
     inkscape:pagecheckerboard="0"
     inkscape:deskcolor="#d1d1d1"
     inkscape:zoom="45.254834"
     inkscape:cx="13.103573"
     inkscape:cy="17.114194"
     inkscape:window-width="3840"
     inkscape:window-height="2054"
     inkscape:window-x="-11"
     inkscape:window-y="-11"
     inkscape:window-maximized="1"
     inkscape:current-layer="svg1" />
  <path
     id="path1"
     style="fill:#ffffff;stroke-width:0.253371;stroke-linejoin:round;fill-opacity:1"
     d="m 22.153169,12.662719 c 0,7.014257 -2.228735,8.976328 -5.896839,10.441171 C 11.860329,24.859417 7.9592714,22.489797 6.155441,21.32648 2.948685,19.258395 2.1917892,15.95492 2.1816239,12.114401 2.1661748,6.277625 6.806571,1.5310706 12.551274,1.5075257 c 5.744703,-0.023545 9.632463,5.7983061 9.663361,11.6350193 l -9.224668,-0.236754 z"
     sodipodi:nodetypes="cssssccc" />
  <path
     style="fill:#8e0b0b;fill-opacity:1;stroke:none;stroke-width:0.00528926;stroke-linejoin:round;stroke-dasharray:none;stroke-opacity:1"
     d="m 15.590083,23.132473 c -0.117676,-0.07573 -0.196404,-0.170674 -0.225425,-0.271865 -0.01486,-0.0518 -0.02671,-0.578398 -0.02792,-1.240599 -0.0033,-1.827974 -0.03531,-2.823189 -0.09952,-3.097816 -0.100222,-0.428642 -0.222813,-0.737542 -0.421248,-1.061437 -0.05137,-0.08386 -0.08863,-0.156366 -0.08279,-0.161132 0.0058,-0.0048 0.183181,-0.0416 0.39409,-0.08186 2.388438,-0.455885 3.821234,-1.749379 4.293391,-3.875973 0.222505,-1.002166 0.26446,-2.161909 0.106183,-2.935181 C 19.387205,9.7243851 19.033716,9.0071585 18.604008,8.5341778 l -0.151402,-0.1666483 0.06073,-0.2035996 c 0.0334,-0.1119796 0.07737,-0.2750043 0.0977,-0.362277 0.05202,-0.2232376 0.07498,-1.1409653 0.0355,-1.4195063 -0.06543,-0.4617153 -0.274311,-1.103246 -0.381029,-1.170232 -0.217721,-0.1366614 -1.007869,-0.019076 -1.69139,0.2517027 -0.387151,0.1533713 -0.902317,0.412521 -1.314617,0.6613065 -0.196364,0.1184875 -0.381309,0.2143153 -0.41099,0.2129507 -0.02968,-0.00136 -0.181975,-0.032728 -0.33843,-0.069696 -0.400579,-0.094651 -1.013162,-0.19002 -1.528828,-0.2380134 -0.51592,-0.048017 -1.585781,-0.055039 -2.045719,-0.013426 -0.579308,0.052413 -1.4615239,0.1957077 -1.8587,0.301902 L 8.9371451,6.355991 8.6272502,6.1709308 C 8.255392,5.9488677 7.5395131,5.5891385 7.196251,5.4518535 6.5556311,5.1956424 5.6593682,5.0683769 5.5146692,5.2130758 5.4585692,5.2691758 5.3179533,5.6528619 5.229906,5.9900826 5.157442,6.2676186 5.14942,6.3416254 5.138174,6.8363636 5.124502,7.4378028 5.155012,7.7283573 5.275175,8.1410473 L 5.343195,8.3746568 5.2138158,8.5377415 C 4.7880294,9.0744524 4.4715433,9.7158537 4.3112346,10.366942 c -0.095537,0.388022 -0.1327222,0.72008 -0.1327222,1.1852 0,1.473187 0.3112434,2.686602 0.9272561,3.615005 0.218858,0.329844 0.7961753,0.910684 1.1125749,1.119362 0.6816608,0.449584 1.4943516,0.757751 2.4560368,0.931316 0.2254545,0.04069 0.419439,0.08204 0.4310767,0.09188 0.011638,0.0098 -0.045782,0.144379 -0.1275983,0.298962 -0.2269466,0.428792 -0.3462952,0.825564 -0.3975669,1.321703 -0.021024,0.203441 -0.047259,0.213643 -0.5538454,0.215377 l -0.3966942,0.0014 -0.1799969,-0.08801 C 7.1987554,18.936371 7.0256875,18.751544 6.7068459,18.265713 6.3718844,17.755319 6.2751873,17.6473 6.0565223,17.539242 5.9118284,17.467739 5.8660895,17.427002 5.7646014,17.279245 5.5162684,16.917696 5.2352135,16.656254 4.9190083,16.492661 4.608397,16.331961 4.4636189,16.292678 4.1785124,16.291738 3.777893,16.290416 3.5630352,16.40318 3.5630352,16.614759 c 0,0.200808 0.1227256,0.347156 0.5395687,0.643429 0.4379642,0.311285 0.6730118,0.608857 1.0381271,1.314278 0.2560846,0.494769 0.4181154,0.715477 0.6885937,0.937959 0.5427644,0.446451 1.1858544,0.654864 2.0206849,0.654864 0.301745,0 0.950815,-0.05754 1.0689987,-0.09477 0.043533,-0.01371 0.046281,0.04643 0.046281,1.013005 0,1.013112 -8.381e-4,1.029243 -0.059504,1.145371 -0.1661453,0.32888 -0.644635,0.292572 -1.50799,-0.07092 C 3.8886535,20.680569 1.2582507,17.913705 0.59558181,14.181133 0.19774095,11.940241 0.51377315,10.110421 0.62380536,9.507438 1.1127858,6.8277977 2.4359748,4.3707403 4.5487603,2.6730629 6.311414,1.2567253 9.0453871,0.41195086 11.189553,0.27509257 c 0.611846,-0.039053 2.138294,0.0635717 2.561039,0.12171494 3.858715,0.53071722 7.017664,2.93956169 8.687617,6.41871329 0.654201,1.3629485 0.907001,3.0414577 0.992655,4.5960492 0.07059,1.281255 0.06873,2.578543 -0.107337,3.490909 -0.672079,3.482524 -3.114919,6.472886 -6.278899,8.012422 -0.866934,0.421835 -1.275153,0.333015 -1.454545,0.217572 z"
     id="path3"
     sodipodi:nodetypes="sscscccssscsccssscsssscsssssscsssssscsscccssssssssssssssssssssscss" />
</svg>
