<?xml version="1.0" encoding="UTF-8" standalone="no"?>
<svg
   version="1.1"
   id="Layer_1"
   x="0px"
   y="0px"
   width="24"
   height="24"
   viewBox="0 0 840 880"
   enable-background="new 0 0 840 880"
   xml:space="preserve"
   sodipodi:docname="google-scholar.svg"
   inkscape:version="1.4 (86a8ad7, 2024-10-11)"
   xmlns:inkscape="http://www.inkscape.org/namespaces/inkscape"
   xmlns:sodipodi="http://sodipodi.sourceforge.net/DTD/sodipodi-0.dtd"
   xmlns="http://www.w3.org/2000/svg"
   xmlns:svg="http://www.w3.org/2000/svg"><defs
   id="defs1240" /><sodipodi:namedview
   id="namedview1240"
   pagecolor="#ffffff"
   bordercolor="#000000"
   borderopacity="0.25"
   inkscape:showpageshadow="2"
   inkscape:pageopacity="0.0"
   inkscape:pagecheckerboard="0"
   inkscape:deskcolor="#d1d1d1"
   inkscape:zoom="0.72920386"
   inkscape:cx="335.98286"
   inkscape:cy="501.23157"
   inkscape:window-width="3840"
   inkscape:window-height="2054"
   inkscape:window-x="-11"
   inkscape:window-y="-11"
   inkscape:window-maximized="1"
   inkscape:current-layer="Layer_1" />





<circle
   style="fill:#ffffff;fill-opacity:1;stroke:none;stroke-width:7.55906;stroke-linejoin:round"
   id="path1"
   cx="426.49255"
   cy="435.40634"
   r="347.63943" /><path
   fill="#4285f4"
   opacity="1"
   stroke="none"
   d="m 819.3673,463.92722 c -0.1028,1.73038 -0.2057,3.46072 -0.3487,6.02869 -0.5539,7.2377 -1.0678,13.63778 -1.7005,20.41775 -0.1738,1.43802 -0.2287,2.49622 -0.5065,3.86514 -0.5851,3.44385 -0.9473,6.57694 -1.4426,10.034 -0.1438,0.78754 -0.1545,1.25119 -0.3053,2.08429 -1.3148,6.79425 -2.4892,13.21899 -3.7811,19.9541 -0.143,0.75025 -0.1685,1.19013 -0.4352,1.91834 -0.9877,3.33563 -1.616,6.4179 -2.5004,9.42468 -4.5242,15.38031 -9.1144,30.74127 -13.9421,46.34711 -9.80862,24.4113 -19.14842,42.69169 -30.4761,63.17639 -0.5251,0.94427 -0.8551,1.66052 -1.4828,2.54303 -16.47015,25.06683 -27.50232,39.15815 -39.805,54.27319 -0.7476,0.73224 -1.2101,1.36652 -1.9775,2.12488 -2.1526,2.33075 -4.0003,4.53729 -6.1493,6.87945 -3.65303,4.84569 -9.09579,8.36663 -12.7735,13.06647 -2.8232,2.65857 -5.3318,5.20014 -8.1563,7.82153 -15.50631,14.45313 -32.71494,26.99975 -49.9087,39.35134 -0.4914,0.15777 -0.6232,0.39166 -0.6322,0.68359 -0.026,-0.0259 -0.087,0.0163 -0.4346,0.0558 -27.64634,18.40873 -57.61452,33.08035 -89.1041,43.79669 -33.08569,12.82982 -64.11967,17.96787 -100.69875,20.50983 -45.96809,3.19397 -106.70703,5.86656 -210.1133,-41.48973 -0.93367,-0.50861 -1.67587,-0.78613 -2.57413,-1.29425 -0.49975,-0.34467 -0.84346,-0.45874 -1.41565,-0.81439 -16.76246,-8.87609 -21.12229,-11.57905 -35.90283,-21.13886 -14.14276,-11.16357 -28.23439,-21.8988 -42.06073,-32.96557 -6.17844,-4.94532 -11.82408,-10.55634 -17.78667,-16.07758 -0.25204,-0.48175 -0.50009,-0.63861 -0.92045,-1.00757 -9.88758,-11.35327 -19.92864,-22.16925 -29.37615,-33.48095 -24.262185,-29.04951 -40.116469,-58.35483 -56.556007,-94.6446 0,-0.17364 -0.1883,-0.46319 -0.1794,-0.80951 -0.6064,-1.5559 -1.2218,-2.76556 -1.8384,-4.15881 -10e-4,-0.18365 -0.1977,-0.49396 -0.1879,-0.86304 -0.9705,-2.46551 -1.9508,-4.56195 -2.9433,-6.64379 -0.012,0.0145 0.021,-0.004 -0.1005,-0.22315 -0.3693,-0.44366 -0.6172,-0.66827 -0.7896,-1.20764 0.1118,-0.96527 0.3399,-1.67664 0.1559,-2.25733 -3.7315,-11.77374 -7.5103,-23.53259 -11.2574,-35.71203 -7.520908,-27.16891 -9.321672,-55.05194 -12.1998,-82.95917 -0.036,-1.80716 -0.1285,-3.19778 -0.1015,-5.04022 -0.024,-4.2135 -0.1678,-7.97522 -0.1969,-12.17972 0.1793,-6.42517 0.2441,-12.40759 0.4093,-18.80057 0.479422,-10.71647 1.85116,-21.36133 2.8126,-32.01642 0.091,-0.74871 0.096,-1.18243 0.3444,-1.92736 1.597,-9.14868 2.9516,-17.98618 4.4617,-27.15641 0.2333,-1.06039 0.3109,-1.78805 0.6386,-2.79257 2.4899,-9.73489 4.7296,-19.19296 7.1688,-28.86242 0.2948,-0.77518 0.3902,-1.33896 0.7479,-2.15271 2.587949,-13.74529 9.70443,-26.03467 13.8328,-38.91596 0.091,-0.20032 0.144,-0.63669 0.3523,-0.77743 0.2802,-0.45374 0.3521,-0.7667 0.4928,-1.15061 0.069,-0.0709 0.08,-0.26846 0.2253,-0.27148 0.1453,-0.003 0.275,-0.25876 0.275,-0.25876 0,0 -0.2372,-0.16159 -0.018,-0.49295 0.4472,-1.08844 0.6755,-1.84555 1.1764,-2.80911 0.7068,-1.47812 1.1411,-2.74976 1.6624,-4.15824 0.087,-0.13684 0.072,-0.46069 0.295,-0.63598 0.3333,-0.52781 0.4432,-0.88028 0.7831,-1.42908 0.4809,-0.95587 0.7317,-1.71539 1.2614,-2.69232 2.7495,-5.49549 12.5726,-24.54648 13.0439,-25.41106 0.3401,-0.6666 0.4686,-1.08214 0.8172,-1.62648 0.33238,-0.4373 0.44465,-0.7458 0.66403,-1.21899 0.10711,-0.16469 0.16737,-0.55297 0.397,-0.70182 0.35707,-0.48085 0.48453,-0.81286 0.71173,-1.27897 0.0997,-0.1341 0.14002,-0.4659 0.43185,-0.63417 1.02081,-1.52683 22.003597,-34.00754 23.477817,-36.24293 0.0172,0.005 -0.004,-0.0242 0.28796,-0.18082 6.77897,-8.37224 13.26566,-16.58788 20.03274,-24.89014 0.71136,-0.70913 1.14231,-1.33165 1.82382,-2.08304 0.42996,-0.44934 0.60937,-0.7698 1.08954,-1.19473 1.49139,-1.6051 2.68201,-3.10579 4.17585,-4.73923 3.04597,-3.13015 5.78871,-6.12756 8.81799,-9.20413 1.02126,-0.9745 1.75597,-1.86984 2.77649,-2.87675 0.50443,-0.44683 0.72304,-0.78206 1.23157,-1.17827 1.04799,-0.94516 1.80606,-1.82935 2.87927,-2.83588 2.85298,-2.65725 5.39082,-5.19217 8.24739,-7.81729 2.02832,-1.75278 3.7379,-3.41534 5.52205,-5.06306 0.0746,0.0148 0.0817,-0.13703 0.31067,-0.17095 0.52989,-0.19679 0.6852,-0.44928 0.73021,-0.77325 0.0353,0.0181 0.0693,-0.0537 0.35469,-0.1113 0.77597,-0.63457 1.26654,-1.21153 2.0845,-1.88214 8.44417,-6.71886 16.56092,-13.34408 24.66303,-19.98018 -0.0147,-0.0109 0.004,0.0201 0.34784,-0.0283 3.47522,-2.34489 6.6064,-4.64138 10.02673,-7.04044 1.067,-0.75194 1.84485,-1.4013 2.75736,-1.90504 0.48724,-0.17848 0.83978,-0.50256 1.35487,-0.89769 0.16254,-0.0711 0.43465,-0.29866 0.77498,-0.31656 1.93506,-1.24625 31.27035,-18.881801 33.01593,-19.848221 0.76184,-0.35877 1.23042,-0.68591 2.02402,-1.02097 1.21113,-0.60122 2.09725,-1.19453 3.17068,-1.81289 0.18732,-0.0251 0.5023,-0.23397 0.8627,-0.23863 18.08831,-9.517968 36.43981,-16.477272 55.42932,-23.60316 0.58264,-0.0877 0.90689,-0.20391 1.62561,-0.30448 22.84806,-8.11906 46.12692,-11.981826 69.91227,-16.069498 0.77652,-0.03521 1.21847,-0.0978 2.08071,-0.07536 2.80704,-0.259529 5.19373,-0.604087 7.91581,-0.913871 0.78146,-0.01161 1.22757,-0.05799 2.13208,-0.02226 8.07486,-0.272293 15.6889,-0.852558 23.30838,-0.935456 17.41684,-0.189487 34.8363,-0.135704 52.627,-0.109836 1.1279,0.06243 1.8836,0.05397 2.964,0.28149 21.53134,1.372548 42.11949,6.119606 63.0385,10.84698 13.4124,4.22561 26.4894,8.29091 39.7854,12.60273 13.80387,5.001783 26.96532,11.081343 40.0533,17.65945 6.7494,3.70434 13.278,7.14999 19.9685,10.864532 0.7398,0.46567 1.3177,0.66244 2.0366,1.11441 0.6764,0.46092 1.2118,0.66665 1.8697,1.11557 0.4571,0.35824 0.792,0.47331 1.275,0.87706 4.9464,3.21232 40.3863,27.97729 41.6182,28.78619 0.01,-0.0154 -0.02,0.005 0.117,0.3045 1.7141,1.44718 3.2912,2.59505 4.9734,3.97373 0.3984,0.38397 0.6917,0.53712 1.0626,0.91281 0.2795,0.50278 0.5528,0.63286 0.8996,0.67581 0,0.0631 0.1257,0.0383 0.2309,0.34198 1.6593,1.43703 3.2134,2.57031 4.8725,3.93895 0.3887,0.41808 0.6724,0.6008 1.0687,1.09627 6.6278,6.20395 13.1429,12.09517 19.7681,18.23736 0.6634,0.71044 1.2168,1.16988 1.8777,1.95202 6.1345,6.69987 12.1616,13.07704 18.2813,19.69629 0.3723,0.43159 0.652,0.62113 1.0084,1.13418 1.6772,2.09639 3.2776,3.86929 4.9448,5.88733 0.3261,0.44879 0.5855,0.65247 0.9075,1.1806 1.3666,1.77695 30.4428,42.41658 33.1121,46.75012 1.0513,1.85463 2.047,3.36432 3.0578,5.22379 7.06968,12.37462 12.51527,23.35727 18.7206,36.22348 0.4081,1.01779 0.7748,1.72952 1.1404,2.81717 3.0214,7.45691 6.0439,14.53796 9.1016,22.0014 0.2514,0.84241 0.4674,1.3024 0.5824,1.89515 -0.052,0.39679 0.1067,0.52868 0.3529,0.58361 -0.023,0.0551 0.084,0.10813 0.076,0.38495 0.2152,0.55945 0.4391,0.8421 0.6917,1.47406 0.5028,1.66419 0.9768,2.97913 1.4262,4.54401 0.1864,0.49808 0.3975,0.74615 0.6318,1.35058 3.04935,8.59676 5.14351,17.33042 7.9588,25.94016 0.108,0.68484 0.2146,1.06937 0.2815,1.85013 1.9639,8.79309 3.9675,17.18997 5.9516,25.91849 0.073,0.76287 0.1651,1.19415 0.1735,1.97961 0.249,1.46057 0.5819,2.56689 0.8946,4.00751 0.082,0.76635 0.1847,1.19842 0.1856,1.95062 0.1693,1.1286 0.44,1.9371 0.6871,3.08374 0.054,0.78204 0.1308,1.22595 0.1374,2.0903 0.9517,7.79929 1.9741,15.1781 2.9546,22.88635 0.018,0.76639 0.078,1.20331 0.049,2.07319 0.2529,3.15374 0.5943,5.87457 0.8897,9.03729 0.089,2.79535 0.2243,5.1488 0.2541,7.96435 -0.032,13.52143 0.042,26.58075 0.1158,39.64008 m -340.5018,-0.69043 c -0.145,-0.43582 -0.29,-0.87164 -0.3287,-2.12262 0.52218,-22.53628 -0.4384,-22.51353 13.8407,-37.51099 41.94264,-33.25174 42.8098,-36.68779 55.1824,-76.12603 3.49592,-34.9133 -21.41665,-60.26195 -8.4522,-72.3432 14.93373,-13.91638 62.973,-49.58885 66.6783,-52.21352 2.3202,-1.01454 4.29746,-3.40044 7.2498,-3.17012 1.76702,2.04027 1.49432,3.40142 1.92502,5.48365 -0.1648,0.3656 0.89296,0.87826 -9.79302,39.34832 -0.3314,8.76617 -0.6627,17.53238 -1.138,27.20172 0.01,3.05423 0.012,6.10846 -0.4525,9.81848 -4.14133,67.34828 -6.18408,105.85494 2.0412,137.25437 2.58766,9.87823 23.1295,13.60243 30.3604,6.26342 13.1256,-28.24717 7.70937,-59.99827 6.04,-90.11166 -0.2024,-24.02346 -1.45829,-48.0318 -1.8273,-72.04938 -0.092,-6.01379 -0.1838,-12.02762 -0.1293,-18.93789 0.6721,-7.35708 -2.232,-13.77202 -5.2758,-20.88697 -1.3447,-4.08243 -2.6893,-8.16485 -3.9334,-13.08732 -2.1038,-8.75718 -1.3197,-17.15372 3.7153,-25.38973 1.1627,-1.56164 2.3255,-3.1233 4.0478,-4.99185 1.4733,-1.5276 2.9467,-3.05521 5.0742,-4.76555 3.813,-3.58134 7.626,-7.16267 11.4391,-10.74402 -0.3166,-0.38719 -0.633,-0.77438 -0.9496,-1.16157 -3.7551,0 -7.5102,0 -12.0122,-0.0995 -12.34563,0.60207 11.79661,-2.4679 -277.67582,-0.7471 -57.04102,49.97736 -114.44412,99.61599 -171.67955,149.39794 0.21603,0.60275 0.43207,1.20547 0.64808,1.80823 3.18583,0 6.37166,0 10.45057,0.26446 6.00625,0.0365 12.01249,0.0729 18.94085,0.29825 7.03127,-0.0343 14.06253,-0.0685 22.02132,0.0259 5.68655,-0.0428 11.37312,-0.0856 17.98405,0.0468 7.02936,-0.0584 14.05869,-0.11679 22.01508,-0.0468 5.35919,-0.0346 10.71841,-0.0693 16.55521,0.48389 1.11493,3.91455 2.22989,7.82907 3.3219,12.57354 1.1567,5.30866 2.31344,10.61734 3.42038,16.40711 0.0823,0.35803 0.30432,0.56921 0.66864,0.51513 0,0 -0.0525,0.10624 -0.0616,0.89313 2.41657,6.37165 4.83313,12.74326 7.28693,19.82587 2.64819,4.3548 5.29642,8.70959 7.9028,13.21585 0,0 0.15488,0.0266 0.22833,0.50201 0.15369,0.31162 0.401,0.5011 0.74759,0.54914 0,0 -0.0196,0.003 0.12131,0.54574 0.27374,0.24564 0.54748,0.49127 0.86786,1.29904 0.38357,0.37958 0.76715,0.75916 1.23541,1.61985 0.16116,0.31616 0.41727,0.50049 0.77383,0.535 0,0 -0.0171,0.008 0.12964,0.66943 4.96424,4.75141 9.92847,9.50284 15.15927,14.82761 0.89087,0.50278 1.78174,1.00559 2.87229,1.9509 0.21911,0.27615 0.50464,0.40393 0.88208,0.53265 0,0 0.14667,-0.038 0.4125,0.45926 0.5113,0.21567 1.02256,0.43134 1.83973,1.24255 10.27972,7.01108 21.62347,11.47239 34.42605,14.45682 5.6904,1.00235 11.38077,2.0047 17.72614,3.47772 7.09897,0.77097 14.19656,1.55506 21.29754,2.30722 3.49601,0.37034 4.85056,1.53794 3.64072,5.53071 -7.22679,20.28085 1.95115,39.01092 10.73825,57.24462 0.55484,0.79062 1.10971,1.58124 1.80487,3.01383 0.0595,0.43289 0.11896,0.86581 0.10507,1.28265 0,0 -0.0113,0.0743 -0.92547,0.015 -18.79967,0.83856 -37.32794,3.31862 -55.95249,5.93478 -14.17376,2.44873 -28.08963,5.77728 -41.87405,12.12512 -5.75449,2.98932 -11.50897,5.97864 -17.95422,9.05121 -3.1753,2.25739 -6.35056,4.51477 -10.1745,6.94446 -1.07279,0.7623 -31.63901,24.42426 -39.67304,54.95184 -8.33098,31.25285 8.32608,52.92565 30.70392,72.89179 11.67349,9.28603 24.59878,14.39218 37.84207,20.70984 0.34842,0.10266 0.69687,0.20532 1.57083,0.77386 30.78912,11.1211 51.95092,10.7218 86.20441,11.16266 24.39477,-0.30828 84.70793,-6.91693 126.93578,-60.81911 3.31522,-4.28721 4.29747,-9.4881 6.8868,-14.01123 5.50075,-13.92687 5.47659,-26.87525 5.9447,-41.45154 -0.8567,-16.41264 -5.71415,-32.01686 -12.6092,-47.01654 -4.2901,-5.47901 -8.5802,-10.95795 -13.0388,-16.86243 -0.1824,-0.26776 -0.4332,-0.42926 -1.0597,-1.08587 -13.38213,-19.73022 -52.095,-32.24633 -62.93656,-59.98083 z"
   id="path169"
   sodipodi:nodetypes="ccccccccccccccccccccssccccsccsccccccccccccccccccccccscccccccccccccccccccccccccccccccccccccccccccccscccccccccccccccccccccccccccccccccccccccccccccccccccsccccccssccccccccccccccccccccccccccccccccccccccccssccccccccccccsccccccc"
   style="fill:#8b0e0e;fill-opacity:1" />















































































































































































































































































































































































































































































































































































































































































































































<path
   fill="#4285f3"
   opacity="1"
   stroke="none"
   d="m 475.36201,661.25579 c -4.63311,1.90962 -14.04991,6.94658 -22.40725,7.98798 0.008,0.008 0,-0.0209 0,-0.0209 -15.42682,1.87895 -22.47977,1.5653 -33.73231,1.85159 -5.36717,0.13658 -10.7645,-0.91388 -16.75941,-1.51499 -5.54554,-0.68777 -18.62126,-3.54737 -27.91813,-8.8513 -27.36573,-15.55295 -45.88588,-30.15417 -38.54355,-70.15502 3.8533,-12.82067 9.87326,-19.47425 16.26824,-26.52211 9.53407,-8.80479 21.42514,-14.1633 33.58552,-18.44054 19.59806,-6.4781 59.56214,-13.65991 100.92317,14.52146 9.22902,7.46188 12.52997,11.09416 16.58729,17.13679 4.9838,10.26857 8.39821,21.36362 7.99517,32.8465 -0.5215,7.03221 0.11094,11.45429 -4.56528,22.32361 -12.86974,21.89568 -28.69087,27.78656 -31.43346,28.83691 z"
   id="path889"
   sodipodi:nodetypes="cccscccccccscc"
   style="fill:#8b0e0e;fill-opacity:1;stroke-width:0.841836" />



























<path
   fill="#4285f3"
   opacity="1"
   stroke="none"
   d="m 479.78033,392.01213 c -3.35792,5.24126 -11.42482,13.88049 -20.77715,18.99575 -8.48977,3.5087 -24.23577,5.90979 -35.46984,1.97845 -13.23147,-4.71867 -26.18613,-13.32306 -32.90655,-20.73919 -6.55115,-7.22925 -12.79392,-14.73792 -19.23108,-22.39032 -5.15769,-7.126 -8.80236,-15.14256 -12.81902,-22.96122 -3.83403,-9.10186 -7.63056,-17.15662 -7.58467,-49.06881 0.11914,-1.819 0.14899,-3.22357 0.4205,-4.93445 0.98788,-19.45195 12.10834,-36.53285 18.12812,-42.81909 3.72895,-4.0895 8.38611,-6.90332 12.96396,-9.86508 0.089,-0.061 10.61889,-4.27557 19.68812,-5.08874 4.33189,-0.32514 8.3232,-0.9856 11.35515,-0.78019 11.164,1.16876 15.23238,1.25003 26.89966,8.01981 3.04877,2.12324 5.89255,3.98223 8.82458,6.07574 0.37918,0.37326 0.67011,0.51205 1.10614,0.8873 0.62729,0.4906 1.1095,0.74469 1.71476,1.30908 2.80307,2.69159 5.48307,5.07291 8.29357,7.75153 1.6634,1.81579 3.1963,3.33429 4.79,5.169 1.0785,1.36133 2.0963,2.40641 3.2034,3.69629 0.3436,0.47397 0.5979,0.70316 0.8998,1.18826 0.3242,0.44477 0.601,0.63361 0.8926,0.78956 0.015,-0.0329 -0.039,0.0151 0.018,0.35495 6.61258,9.49247 12.98353,19.08407 17.0037,30.00988 1.6216,5.19586 3.2445,10.00321 4.8675,15.15979 0.1451,1.02967 0.2902,1.71012 0.3683,2.71863 0.2367,1.12311 0.5403,1.91812 0.8203,3.04627 0.08,0.76391 0.1843,1.19461 0.2041,1.97699 0.228,1.45742 0.5401,2.56317 0.8128,4.01318 0.033,0.79898 0.1053,1.25369 0.1005,2.14252 -0.062,7.81646 -0.047,15.19876 -0.087,23.01779 -1.06994,14.60798 -7.01463,27.87289 -14.50025,40.34632 z"
   id="path917"
   sodipodi:nodetypes="sccsccccccccccccccccccccccccccs"
   style="fill:#8b0e0e;fill-opacity:1" />



































































































































































































































































































































</svg>
